ply
format ascii 1.0
element vertex 48
comment vertices
property float x
property float y
property float z
property uchar red
property uchar green
property uchar blue
element face 144
property list uchar int vertex_indices
property uchar red
property uchar green
property uchar blue
end_header
-0.16941076517105103 -0.13423268496990204 -0.3030053377151489 253 191 3
0.17227360606193542 -0.116773322224617 -0.30405619740486145 253 191 3
-0.1693411022424698 -0.13453443348407745 -0.28536850214004517 253 191 3
0.17234326899051666 -0.11707507073879242 -0.2864193618297577 253 191 3
-0.18742065131664276 0.21859310567378998 -0.2968975007534027 253 191 3
0.1542637199163437 0.236052468419075 -0.29794836044311523 253 191 3
-0.18735098838806152 0.21829135715961456 -0.27926066517829895 253 191 3
0.15433338284492493 0.2357507199048996 -0.2803115248680115 253 191 3
-0.26766493916511536 -0.1596967875957489 0.05284683406352997 9 245 68
-0.2091805785894394 -0.15686985850334167 0.061836812645196915 9 245 68
-0.2936975657939911 -0.14129453897476196 0.21641558408737183 9 245 68
-0.23521322011947632 -0.13846760988235474 0.22540555894374847 9 245 68
-0.2796042561531067 0.23432159423828125 0.006617709994316101 9 245 68
-0.22111991047859192 0.23714852333068848 0.015607684850692749 9 245 68
-0.3056368827819824 0.2527238428592682 0.17018646001815796 9 245 68
-0.24715255200862885 0.2555507719516754 0.1791764348745346 9 245 68
0.21883031725883484 -0.12845447659492493 0.06703560054302216 11 247 159
0.26532989740371704 -0.12977614998817444 0.06137752905488014 11 247 159
0.2360602617263794 -0.11331048607826233 0.20509877800941467 11 247 159
0.282559871673584 -0.11463215947151184 0.19944071769714355 11 247 159
0.22391748428344727 0.21408811211585999 0.028827644884586334 11 247 159
0.27041709423065186 0.21276643872261047 0.023169584572315216 11 247 159
0.24114744365215302 0.22923210263252258 0.16689084470272064 11 247 159
0.2876470386981964 0.22791042923927307 0.16123276948928833 11 247 159
-0.257068395614624 -0.20530903339385986 0.0274420827627182 5 67 253
0.2521463632583618 -0.19939006865024567 0.027081117033958435 5 67 253
-0.2560179531574249 -0.2788427770137787 0.3034958839416504 5 67 253
0.2531968057155609 -0.2729238271713257 0.3031349182128906 5 67 253
-0.2575840651988983 -0.1602141261100769 0.03945617377758026 5 67 253
0.2516306936740875 -0.1542951762676239 0.039095208048820496 5 67 253
-0.2565336227416992 -0.23374788463115692 0.31550997495651245 5 67 253
0.2526811361312866 -0.22782891988754272 0.3151490092277527 5 67 253
-0.03002963587641716 0.055733900517225266 -0.2694469690322876 150 56 244
0.026844602078199387 0.05747787281870842 -0.2683912515640259 150 56 244
-0.03276267647743225 0.011784933507442474 -0.049608014523983 150 56 244
0.024111561477184296 0.013528905808925629 -0.04855231195688248 150 56 244
-0.03156174346804619 0.10031522810459137 -0.2605535686016083 150 56 244
0.02531249448657036 0.10205920040607452 -0.25949785113334656 150 56 244
-0.03429478406906128 0.05636626109480858 -0.04071461409330368 150 56 244
0.022579453885555267 0.05811023339629173 -0.039658911526203156 150 56 244
-0.2487885057926178 0.2652762532234192 -0.0466834232211113 253 40 200
-0.24931639432907104 -0.14990216493606567 -0.06414040178060532 253 40 200
-0.2493411898612976 0.26209408044815063 0.02901460789144039 253 40 200
-0.24986907839775085 -0.15308433771133423 0.011557629331946373 253 40 200
0.24940899014472961 0.2644912302494049 -0.043079033493995667 253 40 200
0.24888110160827637 -0.15068718791007996 -0.060536012053489685 253 40 200
0.2488563060760498 0.26130905747413635 0.03261899948120117 253 40 200
0.24832841753959656 -0.1538693606853485 0.015162019059062004 253 40 200
3 0 2 3 253 191 3
3 0 3 1 253 191 3
3 0 1 2 253 191 3
3 1 3 2 253 191 3
3 4 6 7 253 191 3
3 4 7 5 253 191 3
3 4 5 6 253 191 3
3 5 7 6 253 191 3
3 0 4 5 253 191 3
3 0 5 1 253 191 3
3 0 1 4 253 191 3
3 1 5 4 253 191 3
3 2 6 7 253 191 3
3 2 7 3 253 191 3
3 2 3 6 253 191 3
3 3 7 6 253 191 3
3 0 4 6 253 191 3
3 0 6 2 253 191 3
3 0 2 4 253 191 3
3 2 6 4 253 191 3
3 1 5 7 253 191 3
3 1 7 3 253 191 3
3 1 3 5 253 191 3
3 3 7 5 253 191 3
3 8 10 11 9 245 68
3 8 11 9 9 245 68
3 8 9 10 9 245 68
3 9 11 10 9 245 68
3 12 14 15 9 245 68
3 12 15 13 9 245 68
3 12 13 14 9 245 68
3 13 15 14 9 245 68
3 8 12 13 9 245 68
3 8 13 9 9 245 68
3 8 9 12 9 245 68
3 9 13 12 9 245 68
3 10 14 15 9 245 68
3 10 15 11 9 245 68
3 10 11 14 9 245 68
3 11 15 14 9 245 68
3 8 12 14 9 245 68
3 8 14 10 9 245 68
3 8 10 12 9 245 68
3 10 14 12 9 245 68
3 9 13 15 9 245 68
3 9 15 11 9 245 68
3 9 11 13 9 245 68
3 11 15 13 9 245 68
3 16 18 19 11 247 159
3 16 19 17 11 247 159
3 16 17 18 11 247 159
3 17 19 18 11 247 159
3 20 22 23 11 247 159
3 20 23 21 11 247 159
3 20 21 22 11 247 159
3 21 23 22 11 247 159
3 16 20 21 11 247 159
3 16 21 17 11 247 159
3 16 17 20 11 247 159
3 17 21 20 11 247 159
3 18 22 23 11 247 159
3 18 23 19 11 247 159
3 18 19 22 11 247 159
3 19 23 22 11 247 159
3 16 20 22 11 247 159
3 16 22 18 11 247 159
3 16 18 20 11 247 159
3 18 22 20 11 247 159
3 17 21 23 11 247 159
3 17 23 19 11 247 159
3 17 19 21 11 247 159
3 19 23 21 11 247 159
3 24 26 27 5 67 253
3 24 27 25 5 67 253
3 24 25 26 5 67 253
3 25 27 26 5 67 253
3 28 30 31 5 67 253
3 28 31 29 5 67 253
3 28 29 30 5 67 253
3 29 31 30 5 67 253
3 24 28 29 5 67 253
3 24 29 25 5 67 253
3 24 25 28 5 67 253
3 25 29 28 5 67 253
3 26 30 31 5 67 253
3 26 31 27 5 67 253
3 26 27 30 5 67 253
3 27 31 30 5 67 253
3 24 28 30 5 67 253
3 24 30 26 5 67 253
3 24 26 28 5 67 253
3 26 30 28 5 67 253
3 25 29 31 5 67 253
3 25 31 27 5 67 253
3 25 27 29 5 67 253
3 27 31 29 5 67 253
3 32 34 35 150 56 244
3 32 35 33 150 56 244
3 32 33 34 150 56 244
3 33 35 34 150 56 244
3 36 38 39 150 56 244
3 36 39 37 150 56 244
3 36 37 38 150 56 244
3 37 39 38 150 56 244
3 32 36 37 150 56 244
3 32 37 33 150 56 244
3 32 33 36 150 56 244
3 33 37 36 150 56 244
3 34 38 39 150 56 244
3 34 39 35 150 56 244
3 34 35 38 150 56 244
3 35 39 38 150 56 244
3 32 36 38 150 56 244
3 32 38 34 150 56 244
3 32 34 36 150 56 244
3 34 38 36 150 56 244
3 33 37 39 150 56 244
3 33 39 35 150 56 244
3 33 35 37 150 56 244
3 35 39 37 150 56 244
3 40 42 43 253 40 200
3 40 43 41 253 40 200
3 40 41 42 253 40 200
3 41 43 42 253 40 200
3 44 46 47 253 40 200
3 44 47 45 253 40 200
3 44 45 46 253 40 200
3 45 47 46 253 40 200
3 40 44 45 253 40 200
3 40 45 41 253 40 200
3 40 41 44 253 40 200
3 41 45 44 253 40 200
3 42 46 47 253 40 200
3 42 47 43 253 40 200
3 42 43 46 253 40 200
3 43 47 46 253 40 200
3 40 44 46 253 40 200
3 40 46 42 253 40 200
3 40 42 44 253 40 200
3 42 46 44 253 40 200
3 41 45 47 253 40 200
3 41 47 43 253 40 200
3 41 43 45 253 40 200
3 43 47 45 253 40 200
